<svg width="60" height="52" viewBox="0 0 60 52" fill="none" xmlns="http://www.w3.org/2000/svg">
<path d="M51.904 2H25.949C24.3619 2.00344 22.8407 2.63558 21.7186 3.75805C20.5965 4.88052 19.9649 6.40186 19.962 7.989V19.966H7.989C6.40186 19.9689 4.88053 20.6005 3.75806 21.7226C2.63559 22.8447 2.00344 24.3659 2 25.953V39.924C2.00344 42.5699 3.05618 45.1064 4.92729 46.9771C6.7984 48.8479 9.33512 49.9001 11.981 49.903H51.904C53.4914 49.9014 55.0133 49.2701 56.1357 48.1477C57.2581 47.0253 57.8894 45.5034 57.891 43.916V7.989C57.8881 6.40186 57.2565 4.88052 56.1344 3.75805C55.0123 2.63558 53.4911 2.00344 51.904 2Z" stroke="black" stroke-width="3" stroke-linecap="round" stroke-linejoin="round"/>
<path d="M19.9648 19.9659V49.9069" stroke="black" stroke-width="3" stroke-linecap="round" stroke-linejoin="round"/>
<path d="M26.292 34.936H35.762" stroke="black" stroke-width="3" stroke-linecap="round" stroke-linejoin="round"/>
<path d="M26.292 41.936H45.51" stroke="black" stroke-width="3" stroke-linecap="round" stroke-linejoin="round"/>
<path d="M31.6499 18.3979H46.5899" stroke="black" stroke-width="3" stroke-linecap="round"/>
<path d="M39.1211 10.928V25.868" stroke="black" stroke-width="3" stroke-linecap="round"/>
</svg>
