<svg width="37" height="44" viewBox="0 0 37 44" fill="none" xmlns="http://www.w3.org/2000/svg">
<path d="M30.821 23.182C30.801 19.588 32.427 16.875 35.721 14.877C34.7695 13.5567 33.5247 12.4751 32.0846 11.7171C30.6444 10.9592 29.048 10.5457 27.421 10.509C23.944 10.235 20.144 12.536 18.753 12.536C17.284 12.536 13.915 10.607 11.27 10.607C5.808 10.695 0 14.965 0 23.652C0.0256743 26.3612 0.502188 29.0473 1.41 31.6C2.664 35.194 7.188 44.009 11.91 43.862C14.378 43.803 16.121 42.109 19.334 42.109C22.448 42.109 24.064 43.862 26.817 43.862C31.577 43.793 35.671 35.782 36.866 32.178C30.48 29.171 30.823 23.363 30.823 23.178L30.821 23.182ZM25.278 7.1C26.1439 6.14631 26.8005 5.02183 27.2054 3.79897C27.6103 2.57612 27.7546 1.28201 27.629 0C25.0648 0.274162 22.6944 1.49253 20.979 3.418C20.1002 4.35688 19.4241 5.46664 18.9928 6.67815C18.5615 7.88966 18.3842 9.177 18.472 10.46C21.027 10.656 23.358 9.343 25.278 7.1Z" fill="white"/>
</svg>
