<svg width="31" height="37" viewBox="0 0 31 37" fill="none" xmlns="http://www.w3.org/2000/svg">
<path d="M10.124 20.689H7.388C7.17042 20.6885 6.9619 20.6018 6.80805 20.448C6.6542 20.2941 6.56753 20.0856 6.567 19.868V17.132C6.56753 16.9144 6.6542 16.7059 6.80805 16.5521C6.9619 16.3982 7.17042 16.3115 7.388 16.311H10.124C10.3416 16.3115 10.5501 16.3982 10.704 16.5521C10.8578 16.7059 10.9445 16.9144 10.945 17.132V19.868C10.9445 20.0856 10.8578 20.2941 10.704 20.448C10.5501 20.6018 10.3416 20.6885 10.124 20.689ZM17.512 19.868V17.132C17.5115 16.9144 17.4248 16.7059 17.271 16.5521C17.1171 16.3982 16.9086 16.3115 16.691 16.311H13.954C13.7364 16.3115 13.5279 16.3982 13.374 16.5521C13.2202 16.7059 13.1335 16.9144 13.133 17.132V19.868C13.1335 20.0856 13.2202 20.2941 13.374 20.448C13.5279 20.6018 13.7364 20.6885 13.954 20.689H16.69C16.9076 20.6885 17.1161 20.6018 17.27 20.448C17.4238 20.2941 17.5105 20.0856 17.511 19.868H17.512ZM24.079 19.868V17.132C24.0785 16.9144 23.9918 16.7059 23.838 16.5521C23.6841 16.3982 23.4756 16.3115 23.258 16.311H20.521C20.3034 16.3115 20.0949 16.3982 19.941 16.5521C19.7872 16.7059 19.7005 16.9144 19.7 17.132V19.868C19.7005 20.0856 19.7872 20.2941 19.941 20.448C20.0949 20.6018 20.3034 20.6885 20.521 20.689H23.257C23.4746 20.6885 23.6831 20.6018 23.837 20.448C23.9908 20.2941 24.0775 20.0856 24.078 19.868H24.079ZM17.512 26.435V23.699C17.5115 23.4814 17.4248 23.2729 17.271 23.1191C17.1171 22.9652 16.9086 22.8785 16.691 22.878H13.954C13.7364 22.8785 13.5279 22.9652 13.374 23.1191C13.2202 23.2729 13.1335 23.4814 13.133 23.699V26.435C13.1335 26.6526 13.2202 26.8611 13.374 27.015C13.5279 27.1688 13.7364 27.2555 13.954 27.256H16.69C16.9076 27.2555 17.1161 27.1688 17.27 27.015C17.4238 26.8611 17.5105 26.6526 17.511 26.435H17.512ZM10.945 26.435V23.699C10.9445 23.4814 10.8578 23.2729 10.704 23.1191C10.5501 22.9652 10.3416 22.8785 10.124 22.878H7.388C7.17042 22.8785 6.9619 22.9652 6.80805 23.1191C6.6542 23.2729 6.56753 23.4814 6.567 23.699V26.435C6.56753 26.6526 6.6542 26.8611 6.80805 27.015C6.9619 27.1688 7.17042 27.2555 7.388 27.256H10.124C10.3414 27.2552 10.5497 27.1684 10.7033 27.0146C10.8569 26.8608 10.9435 26.6524 10.944 26.435H10.945ZM24.078 26.435V23.699C24.0775 23.4814 23.9908 23.2729 23.837 23.1191C23.6831 22.9652 23.4746 22.8785 23.257 22.878H20.521C20.3034 22.8785 20.0949 22.9652 19.941 23.1191C19.7872 23.2729 19.7005 23.4814 19.7 23.699V26.435C19.7005 26.6526 19.7872 26.8611 19.941 27.015C20.0949 27.1688 20.3034 27.2555 20.521 27.256H23.257C23.4746 27.2555 23.6831 27.1688 23.837 27.015C23.9908 26.8611 24.0775 26.6526 24.078 26.435ZM30.644 8.65001V32.728C30.6437 33.5986 30.2978 34.4335 29.6821 35.0492C29.0665 35.6648 28.2316 36.0107 27.361 36.011H3.283C2.41238 36.0107 1.57749 35.6648 0.961861 35.0492C0.346237 34.4335 0.000265071 33.5986 0 32.728L0 8.65001C0.000265071 7.77939 0.346237 6.9445 0.961861 6.32888C1.57749 5.71325 2.41238 5.36728 3.283 5.36701H6.567V1.81001C6.56753 1.59243 6.6542 1.38392 6.80805 1.23006C6.9619 1.07621 7.17042 0.989542 7.388 0.989014H10.124C10.3416 0.989542 10.5501 1.07621 10.704 1.23006C10.8578 1.38392 10.9445 1.59243 10.945 1.81001V5.36701H19.7V1.81001C19.7005 1.59243 19.7872 1.38392 19.941 1.23006C20.0949 1.07621 20.3034 0.989542 20.521 0.989014L23.257 0.989014C23.4746 0.989542 23.6831 1.07621 23.837 1.23006C23.9908 1.38392 24.0775 1.59243 24.078 1.81001V5.36701H27.361C28.2316 5.36728 29.0665 5.71325 29.6821 6.32888C30.2978 6.9445 30.6437 7.77939 30.644 8.65001ZM27.361 32.317V11.933H3.283V32.317C3.28353 32.4256 3.32689 32.5296 3.40367 32.6063C3.48044 32.6831 3.58442 32.7265 3.693 32.727H26.951C27.0596 32.7265 27.1636 32.6831 27.2403 32.6063C27.3171 32.5296 27.3605 32.4256 27.361 32.317Z" fill="#9B9B9B"/>
</svg>
