<svg width="113" height="113" viewBox="0 0 113 113" fill="none" xmlns="http://www.w3.org/2000/svg">
<path d="M87.976 95.536H3V3H95.536V89.687" stroke="black" stroke-width="5" stroke-linecap="round" stroke-linejoin="round"/>
<path opacity="0.5" d="M26.042 16.162H70.496" stroke="black" stroke-width="5" stroke-linecap="round" stroke-linejoin="round"/>
<path d="M10.9692 37.02H22.9922" stroke="black" stroke-width="5" stroke-linecap="round" stroke-linejoin="round"/>
<path d="M10.9692 50.703H19.6792" stroke="black" stroke-width="5" stroke-linecap="round" stroke-linejoin="round"/>
<path d="M10.9692 64.386H22.2592" stroke="black" stroke-width="5" stroke-linecap="round" stroke-linejoin="round"/>
<path d="M86.6518 37.02H71.5908" stroke="black" stroke-width="5" stroke-linecap="round" stroke-linejoin="round"/>
<path d="M86.7919 50.703H78.0889" stroke="black" stroke-width="5" stroke-linecap="round" stroke-linejoin="round"/>
<path d="M86.714 64.386H74.376" stroke="black" stroke-width="5" stroke-linecap="round" stroke-linejoin="round"/>
<path d="M48.1471 78.152C62.0481 78.152 73.3171 66.883 73.3171 52.982C73.3171 39.081 62.0481 27.812 48.1471 27.812C34.246 27.812 22.9771 39.081 22.9771 52.982C22.9771 66.883 34.246 78.152 48.1471 78.152Z" stroke="black" stroke-width="5" stroke-linecap="round" stroke-linejoin="round"/>
<path d="M70.5762 71.874L74.0442 75.342" stroke="black" stroke-width="5" stroke-linecap="round" stroke-linejoin="round"/>
<path d="M79.3127 75.5272L74.785 80.0548C74.516 80.3239 74.516 80.7601 74.785 81.0292L102.614 108.858C102.883 109.127 103.319 109.127 103.588 108.858L108.116 104.33C108.385 104.061 108.385 103.625 108.116 103.356L80.287 75.5272C80.018 75.2581 79.5817 75.2581 79.3127 75.5272Z" stroke="black" stroke-width="5" stroke-linecap="round" stroke-linejoin="round"/>
<path opacity="0.5" d="M39.2139 54.416L44.6469 59.849L57.9789 46.517" stroke="black" stroke-width="5" stroke-linecap="round" stroke-linejoin="round"/>
</svg>
