<svg width="113" height="113" viewBox="0 0 113 113" fill="none" xmlns="http://www.w3.org/2000/svg">
<path d="M88.456 95.4541H3.47998V2.91809H96.016V89.6051" stroke="white" stroke-width="5" stroke-linecap="round" stroke-linejoin="round"/>
<path opacity="0.5" d="M26.522 16.0801H70.976" stroke="white" stroke-width="5" stroke-linecap="round" stroke-linejoin="round"/>
<path d="M11.4492 36.9381H23.4722" stroke="white" stroke-width="5" stroke-linecap="round" stroke-linejoin="round"/>
<path d="M11.4492 50.6211H20.1592" stroke="white" stroke-width="5" stroke-linecap="round" stroke-linejoin="round"/>
<path d="M11.4492 64.3041H22.7392" stroke="white" stroke-width="5" stroke-linecap="round" stroke-linejoin="round"/>
<path d="M87.1318 36.9381H72.0708" stroke="white" stroke-width="5" stroke-linecap="round" stroke-linejoin="round"/>
<path d="M87.2718 50.6211H78.5688" stroke="white" stroke-width="5" stroke-linecap="round" stroke-linejoin="round"/>
<path d="M87.194 64.3041H74.856" stroke="white" stroke-width="5" stroke-linecap="round" stroke-linejoin="round"/>
<path d="M48.627 78.0701C62.528 78.0701 73.797 66.8011 73.797 52.9001C73.797 38.9991 62.528 27.7301 48.627 27.7301C34.726 27.7301 23.457 38.9991 23.457 52.9001C23.457 66.8011 34.726 78.0701 48.627 78.0701Z" stroke="white" stroke-width="5" stroke-linecap="round" stroke-linejoin="round"/>
<path d="M71.0562 71.7921L74.5242 75.2601" stroke="white" stroke-width="5" stroke-linecap="round" stroke-linejoin="round"/>
<path d="M79.7926 75.4453L75.265 79.9729C74.996 80.242 74.996 80.6782 75.265 80.9473L103.094 108.776C103.363 109.045 103.799 109.045 104.068 108.776L108.596 104.249C108.865 103.979 108.865 103.543 108.596 103.274L80.767 75.4453C80.498 75.1762 80.0617 75.1762 79.7926 75.4453Z" stroke="white" stroke-width="5" stroke-linecap="round" stroke-linejoin="round"/>
<path opacity="0.5" d="M41.9609 59.5651L55.2929 46.2331" stroke="white" stroke-width="5" stroke-linecap="round" stroke-linejoin="round"/>
<path opacity="0.5" d="M41.96 46.2331L55.292 59.5651" stroke="white" stroke-width="5" stroke-linecap="round" stroke-linejoin="round"/>
</svg>
