<svg width="47" height="47" viewBox="0 0 47 47" fill="none" xmlns="http://www.w3.org/2000/svg">
<path d="M43.138 0.000128158H3.43805C2.53823 -0.00579646 1.67235 0.343546 1.02863 0.972296C0.384896 1.60105 0.0152588 2.45842 0 3.35813V43.2271C0.0147353 44.1274 0.384103 44.9854 1.02783 45.6149C1.67156 46.2444 2.5377 46.5945 3.43805 46.5891H43.138C44.0401 46.5964 44.9087 46.2473 45.5549 45.6178C46.2011 44.9882 46.5727 44.1291 46.5891 43.2271V3.35813C46.5722 2.45665 46.2003 1.59824 45.5541 0.969458C44.9079 0.340674 44.0396 -0.00766987 43.138 0.000128158V0.000128158ZM13.814 39.7001H6.90302V17.4661H13.814V39.7001ZM14.368 10.4201C14.3628 11.4809 13.939 12.4969 13.1889 13.247C12.4388 13.9971 11.4228 14.4209 10.362 14.4261V14.4261C9.56977 14.4259 8.79541 14.1908 8.13678 13.7506C7.47815 13.3103 6.96482 12.6847 6.66174 11.9527C6.35866 11.2207 6.27942 10.4153 6.43402 9.63834C6.58863 8.86135 6.97015 8.14766 7.53033 7.58747C8.09052 7.02728 8.80424 6.64576 9.58124 6.49116C10.3582 6.33655 11.1636 6.4158 11.8956 6.71888C12.6275 7.02196 13.2532 7.53525 13.6935 8.19388C14.1337 8.85251 14.3688 9.62691 14.369 10.4191L14.368 10.4201ZM39.696 39.7001H32.796V28.8881C32.796 26.3101 32.75 22.9881 29.206 22.9881C25.606 22.9881 25.06 25.7971 25.06 28.6971V39.6971H18.16V17.4661H24.787V20.5041H24.88C25.544 19.3708 26.5026 18.4385 27.6539 17.8062C28.8053 17.1739 30.1064 16.8653 31.419 16.9131C38.419 16.9131 39.707 21.5131 39.707 27.5031L39.696 39.7001Z" fill="#0A66C2"/>
</svg>
