<svg width="94" height="87" viewBox="0 0 94 87" fill="none" xmlns="http://www.w3.org/2000/svg">
<path opacity="0.5" d="M33.993 1.56608C33.953 1.46429 33.8897 1.37328 33.8083 1.30035C33.7268 1.22742 33.6293 1.1746 33.5238 1.14611C33.4182 1.11763 33.3074 1.11428 33.2003 1.13632C33.0932 1.15837 32.9927 1.20521 32.907 1.27308C-11.169 34.3261 4.70198 75.8791 4.70198 75.8791C4.70198 75.8791 -0.316019 63.5121 14.18 52.3791C25.263 43.7081 28.552 39.5951 30.073 33.2801C30.0865 33.2319 30.0839 33.1807 30.0655 33.1342C30.0472 33.0877 30.0141 33.0485 29.9714 33.0225C29.9286 32.9966 29.8786 32.9853 29.8289 32.9905C29.7791 32.9956 29.7325 33.0169 29.696 33.0511C28.4128 34.1162 26.9908 35.002 25.469 35.6841C25.4108 35.6997 25.3491 35.696 25.2933 35.6734C25.2374 35.6509 25.1904 35.6107 25.1594 35.559C25.1285 35.5074 25.1152 35.447 25.1216 35.3871C25.128 35.3272 25.1538 35.271 25.195 35.2271C27.395 33.0841 40.229 19.5801 33.995 1.56708" fill="#174674"/>
<path opacity="0.9" d="M79.7409 58.794C77.3958 57.0135 74.522 56.0696 71.5779 56.113H31.8409C27.3465 62.9596 21.7495 69.0149 15.2769 74.033L14.9409 74.413H71.5739C77.9479 74.413 83.1169 70.313 83.1169 65.264C83.0821 63.9999 82.7596 62.7604 82.1739 61.6396C81.5883 60.5189 80.7548 59.5464 79.7369 58.796" fill="#174674"/>
<path opacity="0.7" d="M71.3891 49.139C77.8661 49.139 83.1181 45.039 83.1181 39.99C83.0798 38.7212 82.7505 37.4781 82.1556 36.3566C81.5607 35.2352 80.7162 34.2654 79.6871 33.522C77.2964 31.734 74.3791 30.7913 71.3941 30.842H41.6261C39.8575 37.2178 37.3375 43.3609 34.1191 49.142L71.3891 49.139Z" fill="#174674"/>
<path opacity="0.5" d="M79.6371 7.89097C77.205 6.10396 74.2548 5.16233 71.2371 5.20998H44.7421C44.4783 11.3704 43.6638 17.4948 42.3081 23.51H71.2321C77.7941 23.51 83.1141 19.41 83.1141 14.361C83.074 13.0863 82.7388 11.8383 82.1348 10.7152C81.5307 9.59197 80.6744 8.62421 79.6331 7.88797" fill="#174674"/>
</svg>
