<svg width="44" height="44" viewBox="0 0 44 44" fill="none" xmlns="http://www.w3.org/2000/svg">
<path d="M18.966 2H3C2.44772 2 2 2.44772 2 3V18.966C2 19.5183 2.44772 19.966 3 19.966H18.966C19.5183 19.966 19.966 19.5183 19.966 18.966V3C19.966 2.44772 19.5183 2 18.966 2Z" stroke="#174674" stroke-width="3" stroke-linecap="round" stroke-linejoin="round"/>
<path d="M41.3669 2H25.4009C24.8486 2 24.4009 2.44772 24.4009 3V18.966C24.4009 19.5183 24.8486 19.966 25.4009 19.966H41.3669C41.9192 19.966 42.3669 19.5183 42.3669 18.966V3C42.3669 2.44772 41.9192 2 41.3669 2Z" stroke="#174674" stroke-width="3" stroke-linecap="round" stroke-linejoin="round"/>
<path d="M18.966 24.124H3C2.44772 24.124 2 24.5717 2 25.124V41.09C2 41.6423 2.44772 42.09 3 42.09H18.966C19.5183 42.09 19.966 41.6423 19.966 41.09V25.124C19.966 24.5717 19.5183 24.124 18.966 24.124Z" stroke="#174674" stroke-width="3" stroke-linecap="round" stroke-linejoin="round"/>
<path d="M41.3669 24.124H25.4009C24.8486 24.124 24.4009 24.5717 24.4009 25.124V41.09C24.4009 41.6423 24.8486 42.09 25.4009 42.09H41.3669C41.9192 42.09 42.3669 41.6423 42.3669 41.09V25.124C42.3669 24.5717 41.9192 24.124 41.3669 24.124Z" stroke="#174674" stroke-width="3" stroke-linecap="round" stroke-linejoin="round"/>
</svg>
