<svg width="40" height="38" viewBox="0 0 40 38" fill="none" xmlns="http://www.w3.org/2000/svg">
<path d="M33.8513 28.2V19.926C33.8505 17.1159 32.9919 14.3729 31.3902 12.0639C29.7885 9.75495 27.5201 7.98997 24.8883 7.005V6.823C24.8881 6.18942 24.7632 5.56207 24.5206 4.97678C24.278 4.39149 23.9224 3.85973 23.4743 3.41186C23.0261 2.96399 22.4941 2.60878 21.9087 2.36654C21.3233 2.12429 20.6958 1.99974 20.0623 2C18.783 2.00053 17.5562 2.50874 16.6514 3.41303C15.7465 4.31731 15.2376 5.54375 15.2363 6.823V7.005C12.6039 7.98925 10.335 9.75405 8.7332 12.0632C7.1314 14.3723 6.27313 17.1157 6.27325 19.926V28.2C5.17612 28.2005 4.12407 28.6365 3.34819 29.4122C2.57231 30.1879 2.13605 31.2399 2.13525 32.337V34.409C2.13538 34.6806 2.18905 34.9494 2.29318 35.2002C2.39732 35.451 2.54989 35.6789 2.74214 35.8707C2.9344 36.0624 3.16258 36.2145 3.41364 36.318C3.66469 36.4215 3.93368 36.4745 4.20525 36.474H35.9212C36.4693 36.4737 36.9949 36.2562 37.3829 35.8692C37.7709 35.4821 37.9897 34.9571 37.9913 34.409V32.336C37.9899 31.2388 37.5532 30.1869 36.777 29.4115C36.0007 28.636 34.9485 28.2003 33.8513 28.2V28.2Z" stroke="#234671" stroke-width="2.5" stroke-linecap="round" stroke-linejoin="round"/>
</svg>
