<svg width="39" height="44" viewBox="0 0 39 44" fill="none" xmlns="http://www.w3.org/2000/svg">
<path d="M19.692 42.334C21.2792 42.3364 22.807 41.7299 23.9604 40.6395C25.1139 39.5491 25.8052 38.0579 25.892 36.473H13.501C13.5891 38.0558 14.2796 39.5449 15.4308 40.6348C16.5821 41.7247 18.1067 42.3326 19.692 42.334Z" stroke="#234671" stroke-width="2.5" stroke-linecap="round" stroke-linejoin="round"/>
<path d="M33.4811 28.2V19.926C33.4804 17.1159 32.6218 14.3729 31.0201 12.0639C29.4184 9.75495 27.15 7.98997 24.5181 7.005V6.823C24.518 6.18942 24.3931 5.56207 24.1505 4.97678C23.9078 4.39149 23.5523 3.85973 23.1042 3.41186C22.656 2.96399 22.124 2.60878 21.5386 2.36654C20.9531 2.12429 20.3257 1.99974 19.6921 2C18.4129 2.00053 17.1861 2.50874 16.2813 3.41303C15.3764 4.31731 14.8675 5.54375 14.8661 6.823V7.005C12.2338 7.98925 9.96489 9.75405 8.36308 12.0632C6.76128 14.3723 5.90301 17.1157 5.90314 19.926V28.2C4.80601 28.2005 3.75396 28.6365 2.97807 29.4122C2.20219 30.1879 1.76593 31.2399 1.76514 32.337V34.409C1.76527 34.6806 1.81893 34.9494 1.92307 35.2002C2.0272 35.451 2.17977 35.6789 2.37202 35.8707C2.56428 36.0624 2.79246 36.2145 3.04352 36.318C3.29457 36.4215 3.56357 36.4745 3.83513 36.474H35.5511C36.0992 36.4737 36.6248 36.2562 37.0128 35.8692C37.4008 35.4821 37.6196 34.9571 37.6211 34.409V32.336C37.6198 31.2388 37.1831 30.1869 36.4068 29.4115C35.6306 28.636 34.5784 28.2003 33.4811 28.2V28.2Z" stroke="#234671" stroke-width="2.5" stroke-linecap="round" stroke-linejoin="round"/>
</svg>
