<svg width="45" height="52" viewBox="0 0 45 52" fill="none" xmlns="http://www.w3.org/2000/svg">
<path d="M2.66538 44.1656C2.70198 44.1315 2.74582 44.1062 2.79363 44.0914C2.84143 44.0767 2.89195 44.073 2.94138 44.0806C4.77038 44.3476 6.61438 44.4806 8.44838 44.7066C9.93938 44.8866 11.4374 45.0156 12.9324 45.1756C14.3704 45.3296 15.8074 45.4986 17.2454 45.6546C18.2544 45.7636 19.2694 45.8546 20.2814 45.9666C21.2934 46.0786 22.3214 46.1966 23.3414 46.3076C24.3614 46.4186 25.3834 46.5216 26.4034 46.6316C27.0894 46.7056 27.7764 46.7776 28.4614 46.8696C28.6914 46.9006 28.7694 46.8636 28.7614 46.6096C28.7274 44.5276 28.7204 42.4436 28.6774 40.3616C28.6304 38.0826 28.6534 35.8036 28.6144 33.5226C28.5334 28.7316 28.5074 23.9376 28.4464 19.1486C28.4134 16.5056 28.3654 13.8626 28.3544 11.2196C28.3544 10.8836 28.3544 10.8936 28.0104 10.9336C26.5184 11.1066 25.0244 11.2696 23.5324 11.4446C22.1894 11.6036 20.8494 11.7716 19.5034 11.9276C18.5394 12.0396 17.5734 12.1336 16.6094 12.2426C15.6264 12.3546 14.6474 12.4776 13.6624 12.5916C12.7534 12.6976 11.8454 12.8036 10.9354 12.8976C10.7504 12.9166 10.6864 12.9616 10.6844 13.1636C10.6584 17.2456 10.5514 21.3256 10.5124 25.4076C10.4914 27.6396 10.4314 29.8716 10.4074 32.1076C10.3824 34.3956 10.3224 36.6836 10.2884 38.9716C10.2973 39.0496 10.2764 39.1282 10.2299 39.1914C10.1833 39.2547 10.1145 39.298 10.0374 39.3126C9.39538 39.5066 8.75338 39.6986 8.11238 39.8946C7.29372 40.1453 6.47572 40.398 5.65838 40.6526C4.86638 40.896 4.07338 41.1376 3.27938 41.3776C2.33538 41.6646 1.38938 41.9476 0.448384 42.2416C0.148384 42.3356 0.148384 42.3466 0.148384 42.0216C0.148384 41.143 0.145717 40.2646 0.140384 39.3866C0.132384 37.7606 0.140384 36.1356 0.110384 34.5096C0.0183841 29.4096 0.0483841 24.3096 0.0263841 19.2096C0.0183841 16.4306 0.0183841 13.6566 0.00238411 10.8816C-0.00769213 10.7955 0.0143946 10.7086 0.0644074 10.6378C0.11442 10.5669 0.188838 10.517 0.273384 10.4976C2.08938 9.83095 3.90405 9.15829 5.71738 8.47962C7.35838 7.87362 9.00338 7.27962 10.6434 6.66862C12.7734 5.87962 14.8954 5.08062 17.0224 4.28862C18.8357 3.61329 20.6497 2.94062 22.4644 2.27062C24.4444 1.53762 26.4334 0.828621 28.4024 0.0676215C28.5482 0.0157133 28.7028 -0.00668635 28.8573 0.00172584C29.0118 0.010138 29.1631 0.0491941 29.3024 0.116621C30.6744 0.590621 32.0454 1.06962 33.4184 1.53962C34.9937 2.08229 36.5701 2.62195 38.1474 3.15862C39.9174 3.75862 41.6884 4.35862 43.4604 4.95862C44.1704 5.19762 44.1674 5.19362 44.1804 5.94962C44.2277 8.96629 44.2751 11.983 44.3224 14.9996C44.3754 18.3806 44.4094 21.7616 44.4794 25.1416C44.5354 27.7006 44.5354 30.2596 44.5974 32.8216C44.6704 35.8566 44.6624 38.8926 44.7494 41.9266C44.8104 44.0376 44.7964 46.1486 44.8274 48.2606C44.835 48.3029 44.8341 48.3463 44.8248 48.3883C44.8156 48.4303 44.798 48.47 44.7733 48.5052C44.7486 48.5403 44.7171 48.5702 44.6807 48.5931C44.6443 48.616 44.6038 48.6315 44.5614 48.6386C43.3307 49.0073 42.1017 49.381 40.8744 49.7596C39.6414 50.1416 38.4084 50.5346 37.1744 50.9206C36.5744 51.1076 35.9834 51.2926 35.3854 51.4716C35.2764 51.4981 35.1645 51.5105 35.0524 51.5086C33.3064 51.5566 31.5594 51.5676 29.8154 51.6596C28.4994 51.7296 27.1844 51.7446 25.8694 51.7856C25.4167 51.7512 24.9737 51.6375 24.5604 51.4496C23.6714 51.1756 22.7944 50.8606 21.9114 50.5656C20.7287 50.1703 19.5461 49.7763 18.3634 49.3836C17.3474 49.0476 16.3294 48.7186 15.3154 48.3836C14.1764 48.0026 13.0404 47.6126 11.9014 47.2326C10.7624 46.8526 9.60138 46.4756 8.45638 46.0926C7.31138 45.7096 6.16338 45.3206 5.01538 44.9376C4.41538 44.7376 3.81538 44.5376 3.20838 44.3536C3.03993 44.2593 2.85608 44.1957 2.66538 44.1656ZM0.423384 36.8776V41.6426C0.423384 41.9176 0.506384 41.9586 0.759384 41.8526C0.973697 41.7667 1.19232 41.6919 1.41438 41.6286C2.10638 41.4206 2.80238 41.2226 3.49338 41.0116C4.39338 40.7366 5.27238 40.4296 6.17238 40.1796C6.88738 39.9796 7.58638 39.7336 8.30238 39.5346C8.79138 39.3986 9.27338 39.2346 9.75938 39.0996C9.83719 39.088 9.9073 39.0462 9.95463 38.9834C10.0019 38.9205 10.0227 38.8416 10.0124 38.7636C10.0254 37.9996 10.0324 37.2346 10.0464 36.4716C10.0704 35.1716 10.1074 33.8796 10.1234 32.5826C10.1374 31.3986 10.0824 30.2146 10.1674 29.0296C10.2314 28.1376 10.1614 27.2416 10.2234 26.3456C10.2954 25.2576 10.2234 24.1656 10.2794 23.0736C10.3564 21.5556 10.2794 20.0336 10.3354 18.5126C10.4054 16.7126 10.3854 14.9126 10.4054 13.1126C10.4031 13.0847 10.4031 13.0566 10.4054 13.0286C10.4434 12.8096 10.5254 12.6656 10.7914 12.6416C11.3354 12.5936 11.8764 12.5036 12.4174 12.4416C12.9584 12.3796 13.4874 12.3216 14.0174 12.2616L15.8674 12.0526L18.0244 11.8126C18.4574 11.7646 18.8914 11.7186 19.3244 11.6666C19.9874 11.5866 20.6494 11.4986 21.3124 11.4216C21.9204 11.3496 22.5294 11.2876 23.1374 11.2216C23.6714 11.1606 24.2054 11.0936 24.7374 11.0326C25.4934 10.9456 26.2474 10.8406 27.0044 10.7816C27.4224 10.7496 27.8294 10.6416 28.2484 10.6396C28.4594 10.6396 28.5994 10.7396 28.6044 10.9476C28.6124 11.3016 28.6664 11.6476 28.6704 12.0056C28.6894 13.6756 28.6224 15.3456 28.7134 17.0156C28.7814 18.2726 28.7134 19.5326 28.7654 20.7926C28.8434 22.8536 28.7784 24.9166 28.8154 26.9796C28.8554 29.2466 28.8934 31.5146 28.8964 33.7796C28.8964 35.0286 28.8684 36.2796 28.9344 37.5286C29.0104 38.9526 28.9344 40.3816 28.9904 41.8096C29.0464 43.4186 28.9904 45.0326 29.0124 46.6446C29.0194 47.2246 28.7324 47.2256 28.3704 47.1606C28.1056 47.1136 27.8386 47.0802 27.5704 47.0606C26.9784 47.0166 26.3904 46.9296 25.7994 46.8736C25.0064 46.7976 24.2154 46.6916 23.4214 46.6176C22.9784 46.5766 22.5364 46.5176 22.0944 46.4716C21.3754 46.3906 20.6564 46.3036 19.9374 46.2276C19.3284 46.1616 18.7184 46.1046 18.1094 46.0416C17.4641 45.975 16.8187 45.906 16.1734 45.8346L14.3734 45.6346C13.7834 45.5696 13.1964 45.4906 12.6034 45.4426C11.9744 45.3926 11.3484 45.3016 10.7204 45.2426C10.0924 45.1836 9.46738 45.1046 8.83938 45.0426C8.24838 44.9866 7.65738 44.9146 7.07038 44.8426C6.48579 44.8272 5.90466 44.7477 5.33738 44.6056C5.28638 44.5876 5.21538 44.5906 5.20138 44.6616C5.18138 44.7616 5.26538 44.7466 5.32638 44.7616C5.80138 44.9086 6.27938 45.0526 6.75038 45.2096C7.72838 45.5376 8.69638 45.8976 9.68238 46.2016C10.3614 46.4116 11.0274 46.6576 11.7034 46.8746C12.2714 47.0516 12.8324 47.2576 13.3924 47.4436C14.1304 47.6876 14.8724 47.9186 15.6104 48.1636C16.4004 48.4256 17.1864 48.6996 17.9774 48.9636C18.5414 49.1516 19.1104 49.3246 19.6774 49.5146C20.5504 49.8096 21.4184 50.1146 22.2914 50.4146C23.0764 50.6776 23.8644 50.9146 24.6424 51.1886C25.2281 51.4285 25.8609 51.5311 26.4924 51.4886C26.6481 51.4633 26.8049 51.4459 26.9624 51.4366C28.0524 51.4306 29.1404 51.3706 30.2284 51.3286C31.2284 51.2896 32.2224 51.3416 33.2204 51.2726C33.8704 51.2266 34.5204 51.2306 35.1754 51.2106C35.222 51.2109 35.2684 51.2048 35.3134 51.1926C36.0407 50.9713 36.7677 50.7486 37.4944 50.5246C38.0784 50.3436 38.6584 50.1526 39.2434 49.9756C39.8284 49.7986 40.4264 49.5946 41.0264 49.4256C42.0194 49.1456 42.9964 48.8086 43.9874 48.5256C44.5334 48.3676 44.5484 48.3906 44.5374 47.8066C44.5174 46.8536 44.5684 45.9066 44.4934 44.9536C44.4244 44.0906 44.4784 43.2216 44.4404 42.3536C44.3674 40.6676 44.4744 38.9776 44.3774 37.2886C44.3214 36.2886 44.3654 35.2946 44.3314 34.2966C44.2834 32.8716 44.3024 31.4426 44.2594 30.0156C44.2304 29.0556 44.2674 28.0966 44.2164 27.1346C44.1554 25.9716 44.2004 24.8036 44.1514 23.6346C44.0994 22.4046 44.1594 21.1736 44.1044 19.9416C44.0444 18.6056 44.0874 17.2636 44.0384 15.9256C43.9904 14.6116 44.0604 13.2956 43.9904 11.9796C43.9344 10.8796 43.9704 9.77962 43.9294 8.67962C43.8944 7.74662 43.9224 6.81162 43.9194 5.87962C43.9194 5.47462 43.8524 5.37962 43.5044 5.26262C42.7854 5.02262 42.0664 4.78462 41.3484 4.54362C40.4271 4.23162 39.505 3.91795 38.5824 3.60262C38.0484 3.42062 37.5174 3.22962 36.9824 3.04862C36.0094 2.71962 35.0314 2.40062 34.0624 2.07062C33.4774 1.87062 32.9024 1.64262 32.3184 1.44262C31.2004 1.05962 30.0724 0.686621 28.9474 0.305621C28.8736 0.266046 28.7878 0.255012 28.7064 0.274621C28.4214 0.374621 28.1344 0.474621 27.8494 0.585621C27.1044 0.865621 26.3624 1.15262 25.6164 1.42662C24.8104 1.72662 23.9994 2.00362 23.1964 2.30262C22.2964 2.63862 21.4024 2.98962 20.4964 3.32562C19.4714 3.70762 18.4394 4.07462 17.4134 4.45662C16.3694 4.84462 15.3284 5.24462 14.2844 5.63362C13.5984 5.88762 12.9064 6.12562 12.2214 6.38062C11.6044 6.60962 11.0004 6.85862 10.3854 7.08562C9.17038 7.53362 7.95038 7.97262 6.73438 8.42062C5.87438 8.73762 5.01938 9.06862 4.15838 9.38462C2.97972 9.81995 1.79772 10.2473 0.612384 10.6666C0.514219 10.687 0.427548 10.7441 0.370106 10.8263C0.312664 10.9084 0.288795 11.0094 0.303384 11.1086C0.347384 15.0296 0.265384 18.9506 0.359384 22.8726C0.433384 26.0376 0.319384 29.2006 0.415384 32.3656C0.459384 33.8656 0.421384 35.3736 0.421384 36.8776H0.423384Z" fill="#D4561D"/>
<path d="M0.422211 36.8777C0.422211 35.3777 0.46021 33.8687 0.41421 32.3657C0.31421 29.2037 0.431211 26.0357 0.357211 22.8657C0.266211 18.9417 0.34721 15.0227 0.30121 11.1017C0.288309 11.0027 0.312852 10.9026 0.370021 10.8208C0.42719 10.739 0.512857 10.6816 0.61021 10.6597C1.79754 10.239 2.98154 9.81169 4.16221 9.37769C5.02221 9.06169 5.87821 8.73069 6.74121 8.41369C7.95721 7.96569 9.17721 7.52769 10.3922 7.07869C11.0092 6.85069 11.6132 6.60269 12.2282 6.37369C12.9142 6.11869 13.6062 5.88069 14.2912 5.62669C15.3352 5.23869 16.3762 4.83869 17.4202 4.44969C18.4462 4.06869 19.4772 3.70069 20.5032 3.31869C21.4032 2.98269 22.2972 2.63069 23.2032 2.29569C24.0032 1.99569 24.8152 1.71769 25.6222 1.42169C26.3682 1.14669 27.1102 0.860689 27.8552 0.580689C28.1392 0.473689 28.4262 0.374689 28.7122 0.269689C28.7935 0.251804 28.8785 0.264252 28.9512 0.304689C30.0752 0.685689 31.2022 1.05869 32.3252 1.44269C32.9072 1.64269 33.4832 1.86969 34.0682 2.07269C35.0392 2.40469 36.0152 2.72369 36.9882 3.05269C37.5222 3.23269 38.0532 3.42469 38.5882 3.60669L41.3542 4.54269C42.0712 4.78469 42.7912 5.02169 43.5102 5.26169C43.8592 5.37869 43.9242 5.47269 43.9252 5.87869C43.9252 6.81269 43.9002 7.74769 43.9352 8.67869C43.9762 9.77869 43.9352 10.8787 43.9962 11.9787C44.0662 13.2947 43.9962 14.6097 44.0442 15.9247C44.0932 17.2637 44.0502 18.6047 44.1102 19.9407C44.1662 21.1737 44.1102 22.4047 44.1572 23.6337C44.2062 24.7987 44.1572 25.9667 44.2222 27.1337C44.2722 28.0947 44.2352 29.0547 44.2652 30.0147C44.3082 31.4417 44.2892 32.8697 44.3372 34.2957C44.3712 35.2957 44.3252 36.2957 44.3832 37.2877C44.4832 38.9757 44.3732 40.6657 44.4462 42.3527C44.4842 43.2207 44.4302 44.0907 44.4992 44.9527C44.5742 45.9057 44.5242 46.8527 44.5432 47.8057C44.5552 48.3897 44.5432 48.3667 43.9932 48.5247C43.0022 48.8107 42.0252 49.1477 41.0322 49.4247C40.4322 49.5927 39.8452 49.7937 39.2492 49.9747C38.6532 50.1557 38.0832 50.3427 37.5002 50.5237C36.7735 50.7477 36.0465 50.9704 35.3192 51.1917C35.2742 51.2039 35.2278 51.21 35.1812 51.2097C34.5302 51.2297 33.8812 51.2257 33.2262 51.2717C32.2262 51.3427 31.2262 51.2917 30.2342 51.3277C29.1452 51.3697 28.0572 51.4277 26.9682 51.4357C26.8108 51.445 26.6539 51.4623 26.4982 51.4877C25.8667 51.5298 25.234 51.4272 24.6482 51.1877C23.8702 50.9137 23.0782 50.6767 22.2972 50.4137C21.4242 50.1207 20.5562 49.8137 19.6832 49.5137C19.1202 49.3237 18.5502 49.1507 17.9832 48.9627C17.1932 48.6997 16.4072 48.4247 15.6162 48.1627C14.8782 47.9177 14.1362 47.6867 13.3982 47.4427C12.8332 47.2567 12.2772 47.0507 11.7072 46.8707C11.0302 46.6567 10.3622 46.4097 9.68621 46.1977C8.70121 45.8977 7.73221 45.5347 6.75421 45.2057C6.28321 45.0467 5.80621 44.9057 5.33021 44.7577C5.26921 44.7397 5.18521 44.7517 5.20521 44.6577C5.21921 44.5867 5.29021 44.5827 5.34121 44.6017C5.90849 44.7437 6.48962 44.8232 7.07421 44.8387C7.66121 44.9147 8.25121 44.9887 8.84321 45.0387C9.47121 45.0947 10.0982 45.1767 10.7242 45.2387C11.3502 45.3007 11.9782 45.3857 12.6072 45.4387C13.1982 45.4867 13.7872 45.5657 14.3772 45.6307L16.1772 45.8307L18.1132 46.0377C18.7222 46.1007 19.3322 46.1587 19.9412 46.2237C20.6602 46.3017 21.3792 46.3877 22.0982 46.4677C22.5402 46.5177 22.9822 46.5677 23.4252 46.6137C24.2192 46.6877 25.0102 46.7937 25.8032 46.8697C26.3942 46.9257 26.9802 47.0137 27.5742 47.0567C27.8424 47.0763 28.1094 47.1097 28.3742 47.1567C28.7382 47.2227 29.0242 47.2207 29.0162 46.6407C28.9952 45.0287 29.0522 43.4157 28.9942 41.8057C28.9422 40.3777 29.0152 38.9467 28.9382 37.5247C28.8722 36.2737 28.9012 35.0247 28.9002 33.7757C28.9002 31.5067 28.8602 29.2387 28.8192 26.9757C28.7822 24.9127 28.8472 22.8497 28.7692 20.7887C28.7212 19.5287 28.7852 18.2667 28.7172 17.0117C28.6272 15.3417 28.6932 13.6717 28.6742 12.0017C28.6742 11.6467 28.6182 11.3017 28.6082 10.9437C28.6082 10.7347 28.4632 10.6347 28.2522 10.6357C27.8332 10.6357 27.4262 10.7477 27.0082 10.7777C26.2502 10.8337 25.4952 10.9417 24.7412 11.0287C24.2072 11.0907 23.6732 11.1567 23.1412 11.2177C22.5332 11.2877 21.9242 11.3497 21.3162 11.4177C20.6532 11.4957 19.9912 11.5857 19.3282 11.6627C18.8962 11.7147 18.4632 11.7627 18.0282 11.8087L15.8712 12.0487L14.0212 12.2577C13.4862 12.3177 12.9512 12.3727 12.4212 12.4377C11.8912 12.5027 11.3372 12.5947 10.7952 12.6377C10.5292 12.6617 10.4472 12.8057 10.4092 13.0247C10.4069 13.0526 10.4069 13.0807 10.4092 13.1087C10.3902 14.9087 10.4092 16.7087 10.3392 18.5087C10.2802 20.0297 10.3602 21.5517 10.2832 23.0697C10.2272 24.1627 10.3012 25.2557 10.2272 26.3417C10.1682 27.2417 10.2372 28.1357 10.1712 29.0257C10.0862 30.2107 10.1412 31.3947 10.1272 32.5787C10.1112 33.8787 10.0712 35.1717 10.0502 36.4677C10.0352 37.2307 10.0292 37.9957 10.0162 38.7597C10.0265 38.8377 10.0058 38.9166 9.95845 38.9795C9.91113 39.0423 9.84101 39.084 9.76321 39.0957C9.27521 39.2337 8.79321 39.3957 8.30621 39.5307C7.59221 39.7307 6.89321 39.9787 6.17621 40.1757C5.27621 40.4247 4.39121 40.7327 3.49721 41.0077C2.80921 41.2237 2.11421 41.4247 1.42121 41.6297C1.19915 41.693 0.980521 41.7677 0.766211 41.8537C0.511211 41.9607 0.430211 41.9197 0.430211 41.6437V36.8787L0.422211 36.8777Z" fill="#F13C00"/>
</svg>
