<svg width="41" height="41" viewBox="0 0 41 41" fill="none" xmlns="http://www.w3.org/2000/svg">
<path d="M35.422 18.711C35.422 22.0162 34.4419 25.2471 32.6056 27.9952C30.7694 30.7434 28.1594 32.8853 25.1058 34.15C22.0522 35.4148 18.6921 35.7457 15.4505 35.1008C12.2088 34.456 9.23123 32.8643 6.89419 30.5271C4.55716 28.1899 2.96567 25.2122 2.32098 21.9705C1.6763 18.7289 2.00737 15.3688 3.27234 12.3153C4.53731 9.26177 6.67936 6.65193 9.4276 4.81582C12.1758 2.97972 15.4068 1.9998 18.712 2C23.1439 2.00027 27.3941 3.761 30.5278 6.89489C33.6615 10.0288 35.422 14.2791 35.422 18.711V18.711Z" stroke="#0C3C66" stroke-width="2.5" stroke-linecap="round" stroke-linejoin="round"/>
<path d="M39.6002 39.598L30.5142 30.512" stroke="#0C3C66" stroke-width="2.5" stroke-linecap="round" stroke-linejoin="round"/>
</svg>
