<svg width="124" height="108" viewBox="0 0 124 108" fill="none" xmlns="http://www.w3.org/2000/svg">
<path d="M108.77 3H53.77C50.405 3.00476 47.1793 4.34396 44.8003 6.72384C42.4214 9.10373 41.0834 12.33 41.08 15.695V41.08H15.695C12.3298 41.0834 9.10339 42.4215 6.72348 44.8007C4.34357 47.1798 3.0045 50.4058 3 53.771V83.391C3.00741 88.999 5.23873 94.3751 9.20457 98.3402C13.1704 102.305 18.547 104.536 24.155 104.542H108.775C112.14 104.54 115.367 103.202 117.746 100.822C120.126 98.4428 121.464 95.2161 121.466 91.851V15.695C121.463 12.329 120.124 9.10178 117.744 6.72173C115.363 4.34167 112.136 3.00318 108.77 3V3Z" stroke="black" stroke-width="5" stroke-linecap="round" stroke-linejoin="round"/>
<path d="M41.0752 41.08V104.544" stroke="black" stroke-width="5" stroke-linecap="round" stroke-linejoin="round"/>
<path opacity="0.5" d="M54.4849 72.811H74.5569" stroke="black" stroke-width="5" stroke-linecap="round" stroke-linejoin="round"/>
<path opacity="0.5" d="M54.4849 87.6479H95.2189" stroke="black" stroke-width="5" stroke-linecap="round" stroke-linejoin="round"/>
<path opacity="0.5" d="M64.521 38.9109L73.267 47.6569L94.729 26.1949" stroke="black" stroke-width="5" stroke-linecap="round" stroke-linejoin="round"/>
</svg>
