<svg width="96" height="92" viewBox="0 0 96 92" fill="none" xmlns="http://www.w3.org/2000/svg">
<path d="M13.227 23.454C18.8752 23.454 23.454 18.8752 23.454 13.227C23.454 7.57878 18.8752 3 13.227 3C7.57878 3 3 7.57878 3 13.227C3 18.8752 7.57878 23.454 13.227 23.454Z" stroke="black" stroke-width="5" stroke-linecap="round" stroke-linejoin="round"/>
<path d="M13.227 56.1811C18.8752 56.1811 23.454 51.6023 23.454 45.9541C23.454 40.3058 18.8752 35.7271 13.227 35.7271C7.57878 35.7271 3 40.3058 3 45.9541C3 51.6023 7.57878 56.1811 13.227 56.1811Z" stroke="black" stroke-width="5" stroke-linecap="round" stroke-linejoin="round"/>
<path d="M13.227 88.9081C18.8752 88.9081 23.454 84.3293 23.454 78.6811C23.454 73.0329 18.8752 68.4541 13.227 68.4541C7.57878 68.4541 3 73.0329 3 78.6811C3 84.3293 7.57878 88.9081 13.227 88.9081Z" stroke="black" stroke-width="5" stroke-linecap="round" stroke-linejoin="round"/>
<path opacity="0.5" d="M39.8169 84.8161H56.1809M39.8169 7.08911H92.9999H39.8169ZM39.8169 19.3631H68.4549H39.8169ZM39.8169 39.8161H92.9999H39.8169ZM39.8169 52.0891H76.6369H39.8169ZM39.8169 72.5421H92.9999H39.8169Z" stroke="black" stroke-width="5" stroke-linecap="round" stroke-linejoin="round"/>
</svg>
